
        <svg xmlns="http://www.w3.org/2000/svg" xmlns:xlink="http://www.w3.org/1999/xlink" version="1.1" width="3181.8181818181824" 
        height="2044.1795478132642" viewBox="0 0 3181.8181818181824 2044.1795478132642">
			
			<g transform="scale(9.090909090909092) translate(10, 10)">
				<defs id="SvgjsDefs1657"></defs><g id="SvgjsG1658" featureKey="41S5F6-0" transform="matrix(0.02701683486522539,0,0,0.02701683486522539,90.22665958213126,0.12798888507779826)" fill="#111111"><defs xmlns="http://www.w3.org/2000/svg"></defs><g xmlns="http://www.w3.org/2000/svg"><path class="fil0" d="M2541 3105l-8 32c-10,-4 -18,-6 -22,-8l-164 -73c-5,-4 -11,-7 -19,-11l-97 -55 -113 -64m-689 33l0 0c0,0 -25,-22 -63,24 0,0 -28,37 -29,82 0,0 -2,28 10,41 25,30 57,6 73,-22m-208 -529c-3,-3 -10,-13 1,-40 0,0 0,-7 -19,1 0,0 -14,2 -5,-6 0,0 25,-28 33,-20 0,0 30,-31 38,-45l234 36c0,0 1,0 1,0l0 0c2,0 3,1 4,-1l0 0c2,-2 1,-3 0,-4 0,0 0,-1 0,-1l0 0 0 0c-1,-5 -4,-17 0,-27 3,-6 8,-12 18,-16 1,0 2,-1 3,-1 5,3 10,9 10,20 1,18 -10,27 -21,41l-98 124c0,0 -17,24 -34,28 0,0 -29,-1 -28,21m21 209c0,0 -7,-7 -12,-19l0 0 -167 84c-5,8 -8,16 -10,22l-16 40 -22 -1 0 -2c-1,-17 -10,-37 -23,-48l0 0 0 0c-15,-12 -31,-24 -47,-35 -11,-7 -25,-10 -38,-7l-29 -17c-14,-9 -33,-7 -45,3l-1 0 -39 36c-4,4 -8,9 -10,14l-79 31c-2,1 -3,1 -5,2l-107 -130c0,0 -21,-29 16,-43 0,0 101,-36 186,-19 0,0 218,51 303,105 0,0 -21,26 -35,49l164 -123c2,-10 6,-21 14,-32l51 39 -474 -360c-13,5 -25,8 -38,1 -40,-30 -80,-60 -121,-90 0,0 -97,-87 -135,-147 -4,-6 -8,-13 -7,-21 1,-6 9,-13 13,-17 8,-8 22,-21 36,-26l0 0c7,3 15,6 24,8l303 5c7,2 13,4 20,6 25,7 50,13 75,19 5,1 10,2 15,4 0,1 -1,3 -1,4 -1,10 6,17 15,21 3,1 6,3 9,4l107 36 1 0c15,3 28,-5 34,-19 0,0 0,-1 0,-1l35 11 1 0c26,5 53,5 79,-1 11,-2 23,-6 33,-10 20,-7 41,-27 52,-45l8 -12 -11 -10c-12,-11 -28,-20 -42,-27 -18,-10 -38,-20 -57,-28 -12,-6 -28,-11 -43,-16l219 -12 38 -99 13 15 12 -20c47,-79 94,-159 141,-238l1 -2 1 -3c2,-8 7,-11 15,-12 6,-1 13,0 19,1l13 3 6 -13c4,-8 17,-15 25,-17l5 -1 82 139 18 10c-122,92 -233,199 -325,320l0 1 0 1c-5,7 -9,15 -13,23 -11,20 -22,41 -31,63 -16,33 -30,68 -43,102l-204 -26c-18,-3 -22,-10 -20,-20 -85,40 -175,73 -267,103l0 0 157 126m1 1l0 0 245 197 -9 52 -29 18 0 0c-19,15 -37,34 -51,51l0 0m1171 230l-284 -127c-7,5 -16,9 -25,12m2821 -189c26,-52 176,-115 92,-181 45,61 -117,103 -92,181zm-4265 -426c-58,-23 -106,-63 -150,-108 -33,-5 -61,-24 -79,-60 -9,-32 -15,-65 8,-96 14,-14 29,-24 47,-29 11,25 33,58 70,77 -9,6 -24,16 -37,29 -8,8 -11,11 -9,23 1,5 3,11 7,17 35,50 84,104 142,146zm472 66c-2,-4 -3,-12 2,-23 0,0 9,-19 23,-15l226 29c-9,4 -15,11 -17,18 -5,11 -3,22 -1,29l-233 -36zm-138 994c0,0 43,133 72,174l86 35 55 5c0,0 55,3 68,-56 0,0 17,-36 -12,-72 0,0 -18,-19 -69,-14l-10 -7c5,0 11,-2 17,-11 0,0 29,2 29,-21 0,0 3,-20 -15,-23 0,0 -2,-24 -23,-22 0,0 34,-43 10,-70 0,0 -15,-8 -25,5l-78 -26 -2 -82c0,0 -3,-22 13,-47 0,0 20,-36 24,-64 -1,68 15,99 15,99 4,11 -4,20 -4,20l-2 2c-14,-3 -16,14 -16,14 0,16 11,17 11,17 3,6 7,11 7,11 10,11 15,7 15,7l12 -4c19,30 69,57 69,57 5,12 21,10 21,10 19,-1 22,-26 22,-26 6,-7 9,-4 9,-4l0 0c1,22 2,44 4,66 0,11 4,19 13,25 63,39 131,66 200,86 8,1 15,2 23,0 4,-24 8,-47 12,-71 0,0 3,-24 -7,-43 -10,-19 -31,-59 -31,-93 0,-33 126,-628 458,-902 0,0 58,-72 165,-142l-51 233c-5,32 -6,66 -6,66l4 184c-20,0 -16,31 -16,31 -6,19 2,38 2,38 -2,3 -2,11 -1,17l-3 6 3 1c2,28 -27,29 -27,29 -50,-3 -45,52 -45,52l0 0 -33 -19c0,0 -14,-9 -29,2l-242 222c0,0 -16,22 -32,51l-28 80c0,0 -13,29 -4,57 0,0 9,39 7,65 0,0 -35,66 -20,87 0,0 1,3 -15,2l-44 -1 -8 46 -1 7 -7 2c-10,3 -19,2 -29,0l-1 0 -1 0c-14,-4 -28,-8 -42,-13l8 63c0,0 3,17 8,22 16,24 49,66 81,68l217 24 104 40c0,0 12,5 27,6l422 58c0,0 188,109 331,131 0,0 162,16 229,3l0 0c123,636 547,1037 1181,1048 700,0 1322,-638 1347,-1407 15,-558 -210,-1021 -637,-1261 21,12 99,61 101,111l0 18c0,0 -1,11 4,18l10 11c0,0 6,5 6,-4 0,0 2,-51 -7,-64 -24,-33 -74,-66 -117,-90 -11,-6 -21,-12 -32,-17 -226,-118 -455,-163 -673,-143 135,-80 300,-105 448,-30 44,22 76,44 64,102 20,-19 22,-60 -3,-87 -70,-72 -285,-149 -375,-163 -282,-35 -528,32 -725,230l1 5c13,51 25,101 37,152 -2,2 -5,3 -7,5 -12,-52 -25,-104 -38,-155 -52,5 -103,17 -138,37l27 73c3,6 6,15 4,21l1 0 2 3c10,14 28,43 22,61l5 0 2 5c4,7 9,19 14,31 -2,2 -4,4 -7,6 -7,-17 -14,-33 -14,-33 -10,1 -9,-10 -9,-10 7,-16 -21,-55 -21,-55 -10,0 -6,-9 -6,-9 7,-3 -1,-17 -1,-17l-211 -562c-11,-2 -22,-7 -29,-15l-4 6 -2 -14c-22,6 -39,18 -54,36l-7 8 -10 -5c-2,-1 -3,-2 -4,-3 -20,10 -37,27 -47,47 -5,10 -9,23 -7,35l5 13c1,2 3,4 5,5l5 4 0 6c1,10 4,18 10,26l4 5 -1 6 -1 6 139 369 -28 -74 -427 -233 -66 40 152 -193 123 -47c0,-7 0,-14 0,-21 -20,-23 -29,-61 -6,-85 6,-6 12,-13 18,-19l18 -20 0 0c5,-6 10,-11 16,-15 2,-13 9,-23 22,-28l0 0 0 0c4,-1 8,-2 11,-1 5,-4 10,-7 17,-8l2 0 2 0c15,1 28,8 38,18 10,-2 20,-2 30,-1 1,-2 2,-3 3,-5 -3,-9 -4,-15 -1,-24l0 -1 0 -1c0,-1 1,-1 1,-2l-144 -385c-48,-80 -202,-14 -171,78l76 203c-9,3 -19,7 -28,10 -19,7 -19,11 -19,11 -11,20 -38,27 -38,27l-62 23 -41 -118c-9,-29 -49,-42 -49,-42 -353,-44 -681,-27 -973,77 -14,6 0,18 0,18 98,115 210,216 330,311 4,-3 8,-5 12,-7 56,-35 114,-68 174,-97 23,-11 47,-23 71,-32l1 -1 2 0c29,0 57,1 86,2 119,-37 248,-54 381,-63 21,1 12,-29 12,-29l-3 -8c12,0 17,25 17,25 0,0 1,24 6,49 5,25 23,18 23,18l66 -21c15,-8 23,-33 23,-33 0,0 17,-59 25,-77l7 18 0 0 -22 72c0,0 -8,23 -32,36l-57 20c0,0 -36,10 -44,-23 0,0 -5,-37 -3,-55 0,0 -1,58 -23,51l-3 16 -108 14c0,0 61,6 78,47 -98,-24 -242,-47 -431,-48 0,0 -415,161 -697,535 0,0 -135,218 -198,611l0 0c-51,22 -109,108 -109,108 -36,50 -58,115 -68,152l0 0c0,0 -7,-89 -81,-48 0,0 -56,45 -70,148 0,0 -5,38 -1,57l-2 32c-4,2 -12,6 -12,14 0,0 -20,-21 -35,7 0,0 23,-8 20,20 -8,33 -49,36 -77,25 -14,-5 -27,-15 -38,-33l-21 24c0,0 -8,7 -14,2 -6,-5 -61,-34 -61,-34 0,0 -23,-16 -9,-31 0,0 3,-50 -31,-67 -19,-10 -38,-9 -61,9l-52 -107c-14,-28 -28,-56 -42,-84 -9,-40 -18,-81 -27,-121l-38 -110c-11,-6 -22,-12 -32,-18l0 0 0 0c-7,-4 -14,-11 -19,-18 -11,-16 -13,-35 -5,-52l1 -1 1 -1c0,0 0,-1 1,-1 -5,-9 -11,-20 -11,-31l-48 -30 -2 -2c-10,-11 -11,-28 -2,-40l0 0c9,-12 25,-22 40,-14l5 2 -44 -126c-2,-11 -3,-22 -5,-33 -52,-146 -243,-88 -282,57 -1,7 -2,14 -2,21 2,9 4,19 6,28 32,183 89,363 136,544 10,94 61,132 142,127 35,55 69,105 104,114 7,8 14,16 20,24l-33 17c0,0 -89,46 -127,89l-149 151c0,0 -47,43 -56,72 -4,-73 -20,-207 -7,-271 47,-80 102,-146 167,-193 -7,-3 -14,-7 -21,-12 -10,-7 -19,-16 -26,-26 -297,270 -555,1071 -201,1370 99,84 239,111 409,41 262,-107 436,-448 506,-710 1,-3 1,-6 2,-9 -59,-10 -108,-35 -149,-85l0 0 0 0c-40,-53 -79,-106 -119,-159 -6,-6 -13,-12 -19,-19l-1 -1 -1 -2 -29 -44c-35,23 -68,48 -101,74 -12,9 -23,18 -35,27 -37,218 -123,411 -247,583l28 -177c12,-39 36,-77 36,-77 -1,-17 -10,-4 -10,-4 -23,24 -40,94 -40,94l-28 157c-1,18 -6,33 -6,34 -2,2 -4,5 -5,7 -59,65 -135,98 -200,73 -102,-62 -120,-226 -94,-408 21,-141 57,-276 117,-403 8,-18 16,-35 24,-52l0 0c16,-6 22,40 22,40l10 165c-1,3 -2,6 -3,9l0 -1c-1,-1 -2,-2 -3,-3 -5,-4 -6,-19 -10,-32 -4,-13 -17,-24 -26,-22 -9,2 -9,13 -13,17 -5,4 -4,14 -8,26 -2,5 -2,8 -2,11 2,-1 5,-2 7,-2 4,0 8,2 10,5l21 9c3,-3 8,-4 12,-4 2,0 6,0 8,1l0 -1c-1,2 -1,4 -2,6l0 0c0,0 -10,-2 -18,5l-26 -11c-2,-3 -4,-4 -7,-4 -7,0 -14,8 -15,18 -2,10 2,18 9,18 3,0 5,-1 8,-3l0 0 24 6c0,0 1,15 14,10 0,2 -1,4 -1,6 -9,2 -15,-3 -17,-12l-18 -4c-3,2 -6,3 -9,3 -6,0 -10,-4 -12,-9 -7,9 -9,32 -9,32 -10,5 -7,21 -7,21 -5,11 12,9 12,9 -1,3 8,8 8,8 -27,122 -33,229 -18,322 11,66 33,167 145,160 -69,-8 -107,-66 -121,-160 -9,-115 -2,-224 23,-326 -10,1 -20,3 -30,4l44 -7c-2,12 -4,25 -6,38 -14,132 16,204 111,191l40 8 -68 77c-51,24 -95,-22 -111,-43 1,19 2,38 3,57 8,53 26,112 70,139 -12,-67 39,-130 39,-130l83 -98 22 4c15,-1 18,-17 14,-33 -2,-19 40,-42 51,-77 10,-25 28,-32 42,-49 10,-14 19,-30 13,-44 -11,-19 -44,-5 -63,-13 1,-2 2,-5 3,-8 -12,14 -24,27 -36,41l-1 1 -1 1c-2,2 -2,4 -1,6l1 1 0 1c4,19 -10,34 -28,37l-4 1 -4 -2c-6,-4 -14,-7 -20,-9 -18,-5 -17,-24 -10,-37 2,-4 6,-9 10,-12 -1,-7 1,-15 6,-20l1 -1 2 -1c11,-6 21,-4 28,2 0,-1 1,-2 1,-2l0 -1 1 -1c9,-14 20,-27 30,-40 13,-15 27,-30 41,-45 3,-3 6,-7 10,-10 12,-50 19,-107 13,-154 -13,10 -26,20 -38,31l-1 0 -1 0c-22,16 -45,32 -66,48 -18,13 -38,28 -55,42 -17,15 -43,29 -66,29l-1 0 -1 0c-17,-1 -25,-16 -27,-31l18 -15c-1,3 -1,6 -1,9 0,10 3,20 12,21 0,0 27,0 55,-25 28,-25 123,-91 123,-91 0,0 83,-70 126,-89 41,-19 127,-48 135,-50 14,17 27,35 41,52l-1 -2c-17,15 -136,121 -171,150 0,0 -129,119 -165,176 0,0 -6,17 -13,19 0,0 -6,-21 -22,-12 0,0 -8,8 0,18 0,0 -10,2 -15,13 0,0 -10,16 3,20 13,3 23,10 23,10 0,0 23,-3 18,-23 0,0 -6,-12 4,-20 0,0 61,-70 91,-100 29,-30 180,-157 272,-215 -4,-5 -7,-10 -11,-15 17,23 34,47 50,72 7,6 13,13 20,19 40,53 80,107 120,160 52,63 115,80 181,84l706 94c-1,14 -2,42 13,49 0,0 -3,6 0,8 0,0 -2,4 2,7 0,0 -2,4 2,12l53 109c0,0 4,5 9,0l36 -22 74 144 -22 14c0,0 -8,6 -5,12 0,0 1,10 14,4l23 -11 186 344c1,2 2,7 -3,7 -14,0 -28,0 -37,5 0,0 -15,9 -2,18 0,0 11,7 42,8 0,0 43,3 76,-9 9,-3 34,-14 16,-25 -11,-7 -33,-6 -39,-4l-180 -367 89 -48c0,0 19,-1 14,-17 0,0 -3,-9 -14,-6 0,0 -4,2 -8,9l-91 41 -111 -199c0,0 -19,-30 6,-38l-2 -18 -3 -9 197 26c135,-5 242,-52 332,-126 -18,-9 -36,-18 -53,-28l-245 -34c-15,5 -31,8 -49,9 -331,-37 -663,-74 -994,-110 -55,-11 -100,-37 -134,-81 -28,-42 -56,-83 -84,-125 -8,-13 -17,-26 -25,-39l-42 -63c15,-3 29,-6 43,-8 0,0 86,-45 191,-22l7 94zm176 54l-8 -5 -7 74 -63 -108c0,0 0,-7 -1,-11 0,0 10,-12 10,-33l52 51c0,0 -3,26 14,30 0,0 1,1 2,3zm31 -353l14 -16c0,0 37,36 78,-18l0 1c4,-101 14,-195 27,-281l0 0c0,0 -5,3 -13,8l1 24c-18,10 -49,44 -49,44l-5 -18c-16,18 -32,41 -48,70l6 9c-12,16 -30,74 -30,74l-8 -7c-7,23 -14,52 -17,83l13 -2c0,0 -6,50 0,73l-15 10c4,35 17,78 54,95 0,0 42,21 83,-10l0 0c0,-4 0,-7 0,-11 0,1 -2,2 -10,2l-3 -19c0,0 10,-1 12,-7l0 0c0,-36 0,-72 1,-106l0 1c-24,31 -67,34 -90,1zm-1079 249c1,-2 2,-3 3,-5 -1,2 -2,3 -3,5zm734 -1241c0,0 -25,-6 -5,-19 0,0 31,-18 43,-23 0,0 43,-18 103,-9l189 29c0,0 46,7 73,21 0,0 69,31 95,53 0,0 -21,31 -45,39 0,0 -46,22 -102,10l-52 -16c0,0 -1,28 -19,24l-106 -36c0,0 -28,-10 1,-11l39 -2c-71,-20 -163,-36 -215,-62zm-596 2071l-19 26c7,-9 13,-17 19,-26zm-204 -532c3,0 5,4 4,8 -1,4 -4,8 -7,8 -3,0 -5,-4 -4,-8 1,-4 4,-8 7,-8zm1 -6c5,0 8,6 7,14 -1,8 -7,14 -12,14 -5,0 -8,-6 -7,-14 1,-8 7,-14 12,-14zm228 -221c-50,10 -103,68 -143,146 12,-15 25,-28 35,-37l108 -110zm728 391c2,3 5,5 14,6 0,0 -13,60 45,86 0,0 175,91 299,41 0,0 187,8 212,6 23,-2 46,-18 64,-54l-634 -85zm-63 75c9,1 10,1 11,-2 1,-3 3,-14 11,-10 8,4 11,0 12,-6 2,-6 10,-9 17,-5 6,4 10,-7 11,-12 0,-1 1,-2 3,-2 0,1 1,3 1,4 3,16 11,29 21,40 -3,2 -1,8 -2,12 -2,6 -3,5 -16,3 -13,-2 -5,21 -21,16 0,0 -10,-4 -13,3 -3,8 -5,9 -11,6 -6,-3 -6,1 -10,6 -3,5 -9,9 -16,7 -6,-1 -11,8 -21,8 8,-23 16,-45 23,-67zm-372 -924c35,-2 70,1 102,7 -1,4 -1,8 -1,13 -7,9 -8,21 -3,32l26 70c5,22 27,38 48,45 8,19 27,34 46,41l3 1 65 0 1 -16c0,-11 7,-18 14,-26l21 -17c13,17 25,35 37,55 5,15 10,29 15,44 -9,4 -16,11 -21,21 -6,16 9,24 18,25 -6,21 -39,19 -55,13 -13,-5 -22,-14 -29,-25l-12 -20 -32 38c-2,-2 -5,-3 -7,-4 -6,-4 -13,-7 -19,-11 -10,-5 -20,-11 -30,-16 -2,-1 -4,-4 -5,-6 0,0 0,0 0,0l4 -4 0 -6c1,-10 -1,-22 -3,-32 -5,-22 -17,-41 -37,-51 -8,-4 -16,-7 -25,-8 -14,-2 -26,1 -37,7l-44 -90c-13,-26 -26,-52 -39,-78zm404 358c21,99 26,196 11,290 -29,-13 -54,-32 -74,-58 -28,-41 -56,-83 -83,-124 -9,-13 -17,-26 -25,-39 -9,-14 -19,-28 -28,-43 6,-1 12,-2 18,-3l3 0 3 -1c22,-12 55,-20 80,-24 33,-5 66,-4 97,3zm-128 -571c2,-6 5,-12 7,-16 6,-11 3,-22 4,-29 1,-6 -3,-36 29,-65 0,0 21,-20 49,-21 0,0 21,2 29,-3 8,-6 38,-18 53,-9 0,0 64,33 97,78l52 64 -66 95 -1 0c-18,-11 -39,-21 -59,-29 -23,-10 -47,-18 -71,-26 -40,-13 -81,-25 -121,-36l-2 -1zm-6 406l-47 0c0,0 -34,-12 -38,-38 0,0 -40,-10 -45,-36l-27 -72c0,0 -6,-14 5,-19 0,0 -7,-25 14,-32l87 -34c0,0 -1,-8 6,-14l39 -35c0,0 14,-10 27,-2l36 21c0,0 13,-9 30,2 17,11 46,34 46,34 0,0 16,14 18,37 0,0 4,38 -7,50l-126 103c-10,11 -19,22 -19,37zm-2 -155c0,0 4,23 28,14l53 -42c0,0 17,-16 0,-30l-61 -39c-9,-6 -24,-11 -24,10l3 86zm-455 -433c0,0 -8,-9 -1,-20 0,0 10,-14 19,-9l59 28c0,0 14,-22 30,-12l1 -41c0,0 -17,-19 4,-32 0,0 19,-13 36,-1 0,0 12,19 -3,31l5 64c0,0 18,10 14,23 0,0 0,6 6,-4 0,0 1,-8 7,-10 7,-3 5,-8 3,-10 -2,-2 -8,-13 -8,-17 0,-4 -7,-176 -7,-176 0,0 0,-24 8,-35 0,0 10,-21 20,-31 22,15 45,28 70,38 40,30 79,59 119,89l1 1 1 1c15,8 29,7 44,3l16 13c0,0 62,47 60,84 0,0 2,32 -31,40l-210 58c0,0 -28,8 -38,25l-55 63c0,0 -10,12 -25,6 -15,-6 -65,-34 -65,-34 0,0 -31,-18 -17,-49 0,0 5,-8 4,-14 0,0 -19,-28 -9,-35l-56 -36zm209 867l-29 -35c-8,3 -24,8 -44,15 -1,31 -4,61 -7,91l2 -2c26,-23 52,-46 78,-70zm-102 -1396c-2,-17 0,-18 40,-30 36,-9 72,-19 108,-28 29,-2 58,-4 87,-6 26,7 51,13 77,20 117,-48 257,6 402,81 -8,-2 -16,-3 -23,-4l-189 -29c-26,-4 -53,-3 -79,1 -10,2 -23,5 -33,9 -15,6 -31,16 -45,24l0 0 0 0c-26,17 -17,41 8,49 8,4 17,7 26,11l-282 -13c-55,-13 -83,-55 -95,-84zm369 325c0,0 0,-22 -93,-85 -2,-1 -1,-4 8,-5 0,0 81,-12 125,-24 0,0 127,29 182,29 0,0 -42,-31 -157,-63 0,0 -18,-8 -60,-7 0,0 -81,-4 -146,14 0,0 -31,16 -14,51 31,46 105,69 156,90zm2684 132c7,30 14,61 20,91 2,-2 5,-3 7,-5 -7,-30 -13,-61 -20,-91 -3,1 -5,3 -8,5zm36 163c10,45 19,90 28,134 -54,23 -51,101 11,106l-2 82c0,0 -1,0 -1,0l0 0 0 0c-12,3 -23,5 -35,8 -6,-15 -13,-31 -19,-46 -3,-11 -10,-20 -20,-21l-148 -394 2 -1c20,-15 43,-43 30,-69l0 -1 -1 -1c-2,-2 -4,-4 -6,-5l0 -4c0,-4 -1,-10 -2,-16 -3,-1 -6,-2 -9,-3 2,7 3,14 3,18 -22,-8 -58,0 -77,6l0 0c-42,13 -102,50 -114,98 -2,-4 -4,-9 -6,-14l-177 -94c-1,15 0,24 0,24l190 100c0,-51 66,-92 110,-106 32,-9 70,-14 82,1 9,18 -4,42 -27,59 -6,-17 -14,-21 -33,-16l0 0c-40,13 -100,37 -91,90l0 1 0 1 2 5c-17,18 -34,7 -41,-19 0,-2 -1,-4 -1,-6l-189 -100c2,10 5,19 7,28l175 92 -1 3c-1,1 -2,2 -2,3l-169 -89c3,10 6,19 9,29l147 77c-1,2 -3,4 -4,6l-139 -73c3,10 7,20 10,30l116 61c-1,2 -3,4 -4,6l-108 -57c4,11 9,21 13,31l82 43c-1,2 -3,4 -4,6l-74 -38c6,12 11,23 16,32l45 23c-1,2 -3,4 -4,6l-35 -18c14,24 23,36 23,36l0 0 0 0 -1 1c24,-36 50,-70 77,-104 7,13 18,23 33,26 6,1 12,1 18,-1l30 79c-144,170 -239,387 -292,622 -84,694 194,1069 629,1203 286,57 555,-23 770,-189 558,-429 706,-1495 58,-1865 -201,-115 -422,-146 -631,-101 -14,34 -23,66 -27,97 310,-90 629,14 815,274 -233,-268 -537,-326 -820,-215 -2,113 33,214 -16,347l-6 8c-3,0 -6,1 -9,1l0 0 0 0c-54,11 -93,43 -123,87l-1 1c-4,-1 -8,-2 -13,-2l2 -82 0 -2c66,-15 64,-114 -11,-106l0 0c-9,-46 -19,-92 -29,-138 -2,2 -5,4 -7,5zm-730 963l0 0c-7,-2 -15,-3 -22,-4l124 -756 33 17 -3 -1 -29 187c7,-20 15,-39 23,-59l19 -123 30 15 1 -1c-98,196 -160,414 -178,641 1,28 2,56 3,84zm92 -765l-3 -1 -124 759c-11,-3 -23,-7 -34,-16 0,0 -1,-1 -1,-1l130 -758 33 16zm-43 -22l-3 -1 -129 751c-12,-16 -24,-39 -30,-53l129 -714 33 16zm-43 -22l-3 0 -126 696 -26 -62 123 -650 32 16zm-43 -22l-2 0 -120 633 -26 -61 116 -588 32 16zm-43 -22l-2 0 -113 571 -26 -62 109 -525 32 16zm-43 -22l-2 0 -107 511c-8,-14 -18,-26 -29,-38l106 -488 32 16zm-43 -22l-1 0 -105 482c-10,-9 -20,-18 -31,-27l106 -471 31 16zm-43 -22l-1 0 -105 468c-11,-8 -21,-15 -32,-21l107 -462 31 16zm-43 -22l-1 0 -107 461c-11,-6 -22,-12 -33,-17l110 -459 31 15zm-43 -22l0 0 -110 459c-12,-6 -24,-11 -34,-15l114 -459 30 15zm-44 -16l-8 33 -116 -52c19,-10 24,-22 25,-26l99 44zm-12 47l-8 33 -170 -76c4,-1 6,-1 6,-1l43 -14 130 58zm-12 47l-8 33 -82 -37c-15,-13 -33,-21 -52,-23l-66 -29c6,-8 11,-16 11,-16 3,-4 7,-8 12,-11l185 83zm-12 47l-8 33 -28 -12c-5,-17 -12,-33 -21,-47l57 26zm-12 47l-8 33 -9 -4 0 -2c0,-13 -1,-25 -3,-37l20 9zm-12 47l-8 33 -4 -2c3,-11 5,-22 6,-34l6 3zm-12 47l-8 33 -10 -5c6,-9 11,-20 14,-31l4 2zm-12 47l-8 33 -32 -15c10,-7 18,-15 26,-26l15 7zm-12 47l-8 33 -274 -123c9,-8 17,-17 24,-26l88 39c20,39 53,65 91,65 13,0 25,-3 36,-8l44 20zm-504 366l-35 -6 -2 -6 204 -16 2 -11 -128 11 -1 6 -84 -14 0 -7 220 -18 3 -11 -133 10 -2 8 -86 -12 0 -8 222 -19 4 -13 -133 12 0 8 -93 -12 1 -8 272 -27 47 15 -1 9 -83 5 -4 10 37 -3 43 13 -1 6 -80 7 -1 7 29 -2 49 16 -1 7 -81 7 -2 7 23 -2 48 19 -252 12zm240 -176c-12,-10 -26,19 -12,25 3,1 6,1 10,-2 7,-6 9,-17 2,-24zm11 -5c-20,-16 -44,25 -27,40l-51 -19 -2 6 -161 12 1 7 45 19 1 -7 131 -15 -2 10 14 -1 2 -6 25 -3c1,1 2,1 4,2 5,2 12,2 18,-3 13,-9 17,-30 5,-40zm-3 2c-18,-15 -41,28 -19,37 4,2 10,1 15,-2 11,-8 15,-25 4,-34zm-190 -123c0,0 35,5 67,-18l-31 -15c-31,-17 -51,6 -51,6l-165 143c-38,28 -29,60 -29,60l37 88c12,36 55,43 55,43l308 -8c29,3 28,-64 28,-64 2,-1 62,38 134,86l43 -182 -2 -1 -153 -75 -19 -9 -4 8 -73 12 1 -10 -73 9 -14 9 -90 -11 1 -8 210 -29 -77 -36c0,0 -62,59 -143,36 0,0 -6,-6 5,-16 12,-8 21,-12 34,-19zm223 97l-72 11 -14 -11 -99 11 -10 9 -57 -12 0 -9 216 -26 37 18 0 9zm-220 54l0 -7 125 -13 32 4 6 -9 -45 -16 0 8 -160 15 42 19zm397 202l44 -193 -35 -14 -44 185c11,8 23,15 34,23zm57 -188l-45 196c12,8 23,15 35,23l46 -206 -35 -14zm48 19l-46 209c12,8 23,16 35,23l47 -218 -35 -14zm48 19l-47 221 33 22 49 -229 -34 -14zm47 19l-50 232 37 25 46 -225c0,-7 0,-13 0,-19l-33 -13zm38 78l-37 188 20 13c-28,-17 -85,-20 -85,-20l-231 -174c-16,-6 -20,6 -20,6 -10,13 -42,69 -42,69 -4,12 -14,5 -14,5l-58 -42c-20,-4 -36,0 -36,0 7,8 2,30 2,30l-66 160c-5,15 -15,18 -15,18 -58,17 51,24 51,24 45,-26 112,-146 112,-146 55,34 357,64 357,64 27,4 47,20 47,20 2,4 4,8 5,11l28 -129c-8,-35 -15,-69 -20,-99zm27 131l-25 116c23,38 52,66 83,86 0,-1 -32,-99 -58,-202zm-288 -667c6,0 10,6 10,14 0,8 -5,14 -10,14 -6,0 -10,-6 -10,-14 0,-8 5,-14 10,-14zm-4 -117c2,0 3,0 5,0 -50,3 -90,60 -90,128 0,69 40,125 90,128 -2,0 -3,0 -5,0 -52,0 -95,-58 -95,-129 0,-71 42,-129 95,-129zm-106 194c-5,-13 -8,-27 -10,-41l-51 -23c-3,11 -7,21 -13,31l73 33zm-11 -57c0,-3 0,-5 0,-8 0,-10 1,-19 2,-28l-43 -19c-1,11 -2,23 -5,35l46 21zm4 -50c2,-11 6,-22 10,-32l-56 -25c1,11 2,24 1,38l45 20zm16 -45c6,-11 12,-20 20,-28l-103 -46c0,9 0,14 0,14 0,0 14,0 16,13 0,0 2,7 3,19l64 29zm30 -39c11,-10 24,-17 38,-20l-48 -21c-7,5 -14,8 -21,4 0,0 -21,-1 -17,-21l-66 -30c0,14 1,27 1,37l113 51zm61 -13c56,0 102,62 102,139 0,77 -46,139 -102,139 -56,0 -102,-62 -102,-139 0,-77 46,-139 102,-139zm0 95c4,0 8,2 11,5 -2,-1 -4,-1 -6,-1 -12,0 -22,18 -22,40 0,22 10,40 22,40 2,0 4,0 6,-1 -3,3 -7,5 -11,5 -13,0 -24,-20 -24,-44 0,-24 11,-44 24,-44zm-28 -183l0 -11c0,0 -21,5 -16,-9 0,0 5,-12 21,-15 0,0 7,-42 13,-49l2 1c1,3 5,16 24,13 18,-3 21,-18 22,-26 0,-1 0,-2 1,-3l0 0c0,0 0,-1 0,-1l0 0c1,-3 0,-10 -1,-16 -1,-6 -4,-11 -8,-13 3,-2 7,-11 -34,-30 0,0 -6,-5 -9,-10l46 29c7,6 14,13 17,22 1,2 2,6 1,8l0 0 -3 56c-1,15 -14,30 -28,36l-45 18c-1,0 -2,1 -3,1zm21 -86c1,-1 1,-3 1,-5 2,1 8,4 16,-2 1,-1 11,-6 9,-20 0,-1 -1,-7 -9,-9l0 0c2,-2 6,-7 13,-8 1,1 3,1 5,2l0 0c0,0 0,0 0,0 3,1 6,6 7,11 1,6 2,12 1,15 0,0 0,1 0,1l0 0c0,1 0,2 -1,3 -1,7 -4,22 -20,25 -19,3 -21,-12 -21,-12l0 -1 0 0zm-1 -8c-2,-2 -4,-7 -1,-17 0,0 7,-15 16,-12l0 1 0 0 1 0c8,2 8,7 8,7l0 0c2,13 -8,18 -8,18l0 0c-9,6 -15,1 -15,1l-1 0 -1 0zm-36 -136l769 414 -1 2c16,-29 33,-57 51,-84l-1 1 -784 -406 -8 21 781 403c-1,2 -2,4 -4,6l-780 -402 -5 14c-1,3 -1,5 -2,8l776 399 -2 3 -2 3 -775 -399c-4,8 -9,14 -14,18l0 0zm-132 227l70 31 9 -33 -80 -36c1,12 1,25 1,38zm-2 -53l84 38 9 -33 -95 -43c0,7 0,13 1,20 1,5 1,12 1,18zm-2 -53l99 44 9 -33 -105 -47c-1,11 -2,23 -2,36zm4 -51l107 48c2,-9 8,-28 27,-30l6 7c0,0 -18,3 -24,28l-3 14 -8 34 -3 14 0 1 0 0 -6 27 18 0 10 11 9 0c0,0 -2,18 19,9l30 -12 17 -7c5,-3 19,-12 24,-26 3,-3 3,-14 3,-14l3 -53c0,0 3,-15 -20,-33l-49 -31c0,0 -14,3 -27,-9l-23 -16c0,0 -6,-6 3,-15l11 -9c-8,4 -14,4 -14,4 -31,6 -77,-14 -77,-14 -37,-15 -39,-36 -37,-47 2,12 8,26 25,24l36 3 3 0 1 -3 66 -221c0,0 55,-18 91,-29l-3 -2 3 -6 9 5c11,-3 20,-6 22,-6l0 0 -6 14 595 314c0,-8 0,-16 1,-24l-595 -315c-36,5 -73,20 -107,31l4 -12 -126 55 -28 151 1 1 -3 15c-5,24 9,41 28,53l-10 53c0,0 -1,7 -3,18zm358 160c9,-6 22,-17 23,-36l-42 -25c0,0 -14,-9 -23,-2l-47 -24c0,0 -15,-4 -17,6l-3 32 108 48zm687 -110l-173 -92c0,-7 1,-15 2,-23l163 87c2,9 5,19 8,28zm-9 -37l-161 -86c1,-7 2,-15 4,-22l160 85c-3,6 -4,14 -3,23zm3 -23c0,0 0,-1 0,-1 0,0 0,1 0,1zm-4 -10l-154 -82c2,-7 3,-14 5,-22l138 74c3,12 8,23 11,30zm-13 -39l-134 -72c2,-7 4,-14 7,-21l127 68c-1,8 -1,16 1,25zm1 -32l-126 -67c3,-7 5,-13 8,-20l108 58 6 17c10,0 4,10 4,10 0,1 -1,2 -1,3zm-13 -39l-101 -54c3,-6 7,-13 10,-19l80 43 11 30zm-13 -34l-2 -6 -72 -39c5,-8 10,-15 16,-22l42 22 17 46zm-76 -76l-13 -7c0,0 -6,8 -14,23l-453 -244 14 -18 467 246zm-483 -224l-1 2 454 245c-3,6 -6,12 -10,19l-459 -246 -2 3 17 -22zm-20 25l460 247c-3,6 -6,13 -9,20l-465 -249 14 -18zm-18 23l467 250c-3,7 -5,13 -8,20l-473 -253c2,-3 5,-5 6,-9l7 -9zm-19 23l476 254c-2,7 -4,14 -6,21l-493 -263c8,-3 16,-7 23,-13zm-32 16l500 266c-2,7 -3,14 -5,22l-532 -283c6,-1 12,-1 18,-2 0,0 8,-1 18,-4zm-49 7l543 288c-1,7 -2,15 -3,23l-583 -309c4,0 7,0 11,0l-1 3c11,-2 22,-3 33,-5zm-130 220l8 -21 743 386c7,12 14,24 22,35l-773 -400zm11 -27l8 -21 709 369c5,11 11,22 17,33l-734 -381zm11 -27l8 -21 680 355c4,10 9,20 13,31l-701 -365zm11 -27l8 -21 654 343c3,9 7,19 11,30l-673 -352zm11 -27l8 -21 632 332c2,9 5,18 9,29l-649 -340zm11 -27l8 -21 612 322c1,6 4,16 7,28l-627 -329zm11 -27l8 -21 597 316c0,8 1,17 2,25l-608 -320zm-208 31l-26 139 2 3 1 2c0,0 -2,36 19,34l1 0 33 3 66 -223 -96 42zm-705 -240c-52,-61 -24,-303 40,-499 120,-275 664,-348 1037,-171 -358,-116 -682,-112 -948,95 -16,15 -27,34 -21,54 41,77 82,155 123,232 0,0 -28,7 -36,26 0,0 -47,-11 -54,24 -47,79 -94,159 -141,238zm1066 -680c23,21 59,39 70,63 58,10 123,40 193,77l-29 -76c-82,-55 -162,-86 -234,-64zm-78 -41c0,0 44,25 66,36l9 -3c21,-7 42,-9 64,-7 -37,-22 -110,-38 -139,-26zm-863 172c0,0 -8,15 6,12 0,0 1,0 1,-1l0 0c150,-53 307,-83 466,-94 170,-12 342,-4 511,17l1 0 1 0c4,1 7,2 11,4l8 -1c-225,-158 -751,-176 -1004,63zm1633 547c6,-25 11,-62 3,-97 0,0 -45,-11 -51,-46 0,0 -11,-43 28,-73 3,3 8,4 12,4 5,8 16,8 25,5l41 16c0,6 3,12 7,16l1 1 48 18c-3,10 -1,21 9,27l1 0 36 17 -10 14 0 1c-10,21 -7,48 6,67l0 0c12,16 27,29 46,36l49 174 -69 30c0,0 -18,11 -39,4l-66 -15 -77 -200zm-484 -684c-23,-25 -57,-103 -48,-123 12,-22 26,-40 41,-53l-7 0c0,0 -92,-126 -133,-146 -42,-20 -169,-17 -222,-17 -53,0 -240,4 -195,-46l0 0c-8,-3 -14,-8 -15,-16 0,0 0,-8 2,-17 16,-38 25,-78 29,-119l0 -1 2 -14c0,0 4,-19 20,-14 17,6 16,2 16,2 0,0 15,1 13,13 0,0 17,3 27,17l0 0c0,0 21,-12 10,-27 -10,-15 -27,-44 -10,-44 -35,-5 -93,-14 -113,-16 0,0 -17,-4 -28,-10 -91,-41 -175,-91 -249,-155l0 0c-4,2 -8,3 -13,3 -18,0 -32,-15 -32,-33 0,-18 14,-33 32,-33 18,0 32,15 32,33 0,5 -1,9 -3,13l0 0c73,41 146,82 218,123 0,0 29,15 38,15 9,0 149,9 149,9 0,0 9,0 14,4l12 10c0,0 3,2 7,2 0,0 2,0 5,0 0,0 0,-1 0,-1 -1,-11 -17,-12 -18,-17 -3,-15 -6,-31 -10,-45 -1,-12 3,-17 13,-21 -15,-32 -35,-58 -58,-81 -16,-12 -32,-21 -51,-23 -3,-3 -2,-7 -1,-10 -6,2 -12,4 -18,0 -14,-11 -28,-22 -42,-33 -20,-11 -40,-18 -61,-20 0,0 -39,-5 -58,-23 -49,-26 -210,-154 -221,-340 0,-8 1,-16 6,-23 27,-28 63,-33 106,-23 69,20 135,50 199,84 20,11 36,25 47,45 48,89 86,183 108,284 1,17 5,34 13,49 29,31 55,62 65,101 6,0 10,5 13,11 7,17 13,35 20,52 3,9 -1,17 -7,23l12 54 33 20c0,0 15,-3 15,-15 0,-12 13,-11 18,-14 5,-3 15,-4 25,-11 10,-7 14,-3 14,-3 0,0 24,-60 119,-26 0,0 62,29 49,84 0,0 -13,39 -13,47 0,8 0,12 -4,18 0,0 -3,4 -1,13 0,0 16,-1 34,10l23 13c0,0 9,5 4,15 0,0 -4,18 -16,14 0,0 -15,-1 -26,-10 0,0 -25,-13 -26,2 0,0 -11,58 -27,44 0,0 8,26 42,31 0,0 26,-9 46,3 0,0 44,-2 73,17 0,0 100,29 141,58 0,0 110,45 108,4l0 0c-82,-64 -118,-109 -91,-128 -96,-157 -80,-261 114,-260 33,-30 89,5 134,8l40 6c-16,12 -45,38 -36,63 5,16 68,93 143,168 52,53 110,106 158,139 6,7 49,50 90,58 21,9 359,154 398,185l2 1c0,0 23,11 41,2l1 -1 19 -14 1 -1c0,0 20,-18 6,-38 -4,-7 -57,-106 -79,-127l-1 -1c0,0 -60,-47 -101,-75 -6,-4 -15,-14 -27,-28 -58,-66 -189,-216 -565,-336l-2 0 -21 -3 77 -53c256,44 468,167 665,321 76,117 127,233 141,346 7,71 14,141 21,212 -9,-44 -29,-76 -61,-96 -48,-23 -95,-47 -143,-70 -144,-56 -289,-112 -433,-168 -92,27 -252,19 -308,49 60,13 120,25 179,38 14,3 29,7 44,25 0,0 71,133 222,138 94,86 188,171 281,257 55,36 115,129 165,109 -74,59 -159,98 -264,101 -166,-4 -251,-180 -314,-307l-25 -61 0 0c-6,-11 -39,-67 -45,-77 -39,-68 -60,-105 -159,-130l0 0c-59,-16 -89,-53 -103,-80l-111 67 0 0c25,31 48,68 61,109l0 1c0,0 16,107 41,163l0 0c0,0 40,102 164,138l0 0c0,0 20,8 43,-5l21 -19c2,-2 13,-13 15,5l0 2c0,0 -41,73 55,100l2 1 0 3 0 1c4,2 9,5 14,9l223 97c0,0 23,0 30,16l36 15c0,0 12,12 10,29l34 14c0,0 29,16 10,36 0,0 -13,11 -23,3l-36 -16c0,0 -30,22 -49,-2 -18,-23 -227,-101 -227,-101 0,0 -14,-3 -15,-15 0,0 -15,3 -25,-1 0,0 -29,44 -49,40l-9 -4 0 0 -17 19c0,0 -9,12 -5,32 0,0 0,32 40,34 0,0 11,-6 22,-9 11,-3 17,-9 17,-14 0,-6 9,-12 14,-26 5,-14 52,-5 52,-5l101 42c0,0 14,13 -5,7l-38 -13c0,0 -19,-4 -12,12l15 18 -34 -15c0,0 -19,-10 -32,3 0,0 -18,8 -25,20 0,0 -28,20 -47,9 0,0 -42,3 -71,-38 0,0 -20,-29 -5,-59l16 -22 0 0 -45 -20c0,0 -14,-10 -2,-25l-55 -21c0,0 -7,-6 -3,-15l-50 -20c0,0 -17,8 -19,-5 0,0 -17,3 -16,-12l-34 -13c13,-7 21,-17 21,-27 0,-6 -3,-12 -9,-17l30 15c0,0 16,-6 18,5 0,0 24,-11 28,18l28 12c0,0 10,-22 37,-8l33 14c0,0 9,-22 28,-9l61 23c0,0 9,-8 22,-10 -80,-29 -51,-95 -46,-104 -1,-2 -3,0 -3,0l0 0 -21 19 -1 0c-25,15 -48,6 -50,5 -125,-37 -167,-139 -168,-142 -25,-55 -41,-158 -42,-164 -16,-53 -49,-98 -82,-132 1,3 1,7 2,10 12,67 5,116 11,183 4,38 10,80 23,118 1,2 3,7 5,13 5,1 11,2 17,4 46,55 29,56 44,97 -22,-7 -49,2 -68,30 -2,4 -5,8 -7,12 2,4 5,9 7,13 -29,6 -50,22 -67,41 -3,-2 -4,-5 -8,-7 -65,28 -90,102 -55,128 1,12 5,23 12,33 0,3 -1,5 -1,8 -20,-17 -34,-40 -46,-67 -30,-26 -37,-60 -33,-97 -17,-17 -29,-50 -10,-70 6,-6 12,-13 18,-19 7,33 25,82 63,112 3,-2 5,-4 8,-6 -4,-4 -6,-9 -10,-12 -27,-15 -54,-74 -50,-104 8,-10 16,-21 27,-26 0,-12 4,-20 14,-23 4,-1 7,0 10,2 5,-5 11,-9 17,-11 14,1 25,9 34,20 15,-4 30,-5 45,1 0,-5 2,-10 6,-15 2,-3 3,-5 2,-9 -2,-7 -4,-11 -2,-18 3,-6 7,-10 12,-13 -1,-5 -3,-10 -4,-13 -13,-40 -20,-85 -24,-124 -6,-64 1,-119 -11,-183 -2,-12 -5,-24 -8,-34 -36,-32 -66,-51 -66,-51l1 -1c-4,5 -12,7 -25,4 -19,-5 -43,-19 -54,-24 -67,-19 -172,33 -160,103 0,8 2,15 4,23l0 0 12 33zm111 -203c12,2 24,6 37,11 22,11 50,10 66,25 9,9 13,19 9,25l2 -3c0,0 26,16 59,44 -20,-67 -48,-103 -64,-118 -3,-3 -15,-14 -25,-23 -23,-6 -119,-31 -131,-35 -11,-3 -56,-23 -67,-24 -10,-2 94,73 113,97l0 0zm819 278c0,0 -74,-4 -125,-42l205 -90 48 26 -129 105zm-491 -222c-77,25 -128,72 -128,72l0 0 0 0c-20,-88 -55,-136 -75,-157 34,8 76,19 91,27 23,12 43,-6 43,-6l69 61 1 3zm-173 510c1,-1 8,3 14,10 7,7 11,14 9,15 -1,1 -8,-3 -14,-10 -7,-7 -11,-14 -9,-15zm-47 -45c0,0 13,26 42,30l5 -17c0,0 -22,-10 -29,-25l-18 12zm23 -11c1,-1 7,2 13,7 6,5 11,10 10,12 -1,1 -7,-2 -13,-7 -6,-5 -11,-10 -10,-12zm2 69c5,-5 10,-9 15,-14 4,17 18,30 34,35 -5,6 -10,12 -15,17 -12,-5 -30,-19 -34,-39zm157 14c24,-2 44,8 44,23 0,15 -20,29 -44,31 -24,2 -44,-8 -44,-23 0,-15 20,-29 44,-31zm-46 20c-7,-41 69,-61 84,-16 -9,-6 -23,-8 -38,-7 -21,2 -38,11 -46,23zm46 -3c9,-1 17,3 17,9 0,6 -8,11 -17,12 -9,1 -17,-3 -17,-9 0,-6 8,-11 17,-12zm360 435c0,0 -10,-27 -9,-56 1,-38 28,-79 69,-72 23,4 42,23 45,54l-10 7c-5,-30 -24,-41 -39,-35 -22,9 -32,48 -17,69l-39 33zm-1370 -1262c0,0 6,37 17,17 20,-40 34,-87 38,-150 0,0 1,-15 -11,-6 -5,6 -10,13 -15,19 0,43 -12,82 -29,120zm-346 -201c123,28 247,56 370,84 0,37 -7,72 -24,105 -123,-25 -245,-51 -368,-76 12,-38 20,-75 21,-113zm-45 103c-1,10 13,18 15,9 13,-36 23,-74 22,-116 0,-9 -15,-13 -19,-5 2,38 -5,75 -19,112zm-71 -15c-66,-8 -71,-130 31,-112 18,4 36,9 55,13 3,38 -3,74 -17,109 -23,-3 -46,-7 -69,-10zm1527 398c7,22 32,74 103,93l0 0c97,24 123,60 159,122l-17 -41c-9,-17 -21,-32 -38,-44 -64,-39 -128,-78 -192,-118l-15 -13zm0 281c0,0 -13,25 12,75 25,51 95,113 95,113 0,0 77,68 120,-44 0,0 30,-5 25,35 0,0 -43,99 34,104 0,0 97,55 130,65 0,0 37,-19 56,-15 0,0 -84,-81 -149,-210 -67,-71 -141,-172 -167,-264 0,0 -19,-13 -77,-32 0,0 36,41 10,69 -29,35 -73,69 -88,105zm46 -790c-10,7 -39,29 -34,44 5,14 65,87 138,160 51,52 109,105 156,137l2 1c0,0 43,46 81,52l2 1c1,0 356,152 403,188 3,1 14,6 21,2l18 -13c1,-2 6,-7 3,-11l-1 -1c0,0 -55,-102 -75,-121 -6,-5 -61,-47 -99,-74 -8,-6 -18,-17 -31,-32 -56,-65 -185,-211 -555,-329l-27 -4zm-295 233l159 0c0,0 144,-1 98,106 0,0 -57,30 -146,35l-6 -6 0 0 0 0c-12,-9 -142,-105 -109,-128l6 -4 -1 -2zm479 324c0,0 47,-47 86,-70l-111 10 25 60zm12 9c0,0 14,25 27,35l55 -105 -82 70zm32 44l58 -107 63 22 -121 85zm59 55l6 -89 -57 41 52 47zm19 -96l55 -39 -57 130 3 -91zm67 -32l111 43 -161 71 50 -114zm382 484c25,-30 129,-159 130,-232 0,0 47,71 29,144 0,0 -34,104 -50,144l-8 3c-3,1 -6,2 -9,2 -30,2 -71,-41 -91,-61l-1 -1zm-217 -210l25 29 214 -38 -238 10zm79 -171l245 131 -61 15 -189 5 5 -151zm-77 155l62 -163 -11 160 -51 3zm263 9c0,0 -3,139 -51,203 0,0 110,-112 121,-225l-39 13 -32 9zm-229 45c0,0 155,-23 208,-39 0,0 1,119 -40,184l-168 -145zm-129 -129l120 -105 23 8 -63 181 -79 -84zm-284 516l13 55c-6,-2 -12,-5 -16,-11 -2,-3 -4,-8 -4,-12l0 -1 0 -1c-1,-7 -1,-19 3,-25l4 -4zm-2243 1349l12 -17c0,0 9,16 30,21l-1 26c-25,-4 -34,-21 -40,-30zm106 15l0 0 0 0 0 0zm2137 -242l-147 -394c-7,-41 33,-64 85,-80 14,-4 18,-2 24,13l150 398 0 0c-35,15 -87,30 -111,63zm75 249l-75 -190c-25,-70 67,-94 114,-114 10,-2 15,6 18,16 7,18 14,35 22,53 14,-3 28,-6 42,-10 24,-3 45,11 59,49 20,53 40,105 61,158 15,34 42,46 71,66 29,27 60,154 0,214 -34,18 -63,36 -89,57 -47,-2 -87,-19 -121,-49 3,0 6,-1 8,-3l0 0 0 0c40,-25 79,-50 119,-75l1 0 1 -1c7,-6 8,-16 4,-24l0 0 0 0c-4,-8 -7,-16 -11,-24 6,-53 -12,-98 -51,-135 -16,-27 -41,-59 -75,-62 -41,-2 -74,14 -93,51l0 0 0 0c-3,8 -5,16 -5,24zm-237 -116l79 0 33 88c0,0 9,30 6,48 0,0 -31,6 -25,46l-50 137c0,0 -23,55 -67,50l-45 -8 0 4 -4 2c-2,1 -4,3 -6,5l-11 60c1,6 3,12 4,17 1,1 1,3 2,4l13 2 0 0c14,197 91,376 258,500 34,22 68,39 102,53l-10 49c-19,64 -76,49 -76,49 -232,-39 -298,-344 -327,-548 0,-11 -1,-23 -1,-34 15,16 47,13 47,13 24,9 -15,-84 -15,-84 -23,-72 16,-93 16,-93 1,-18 12,-40 20,-54 3,-4 6,-9 9,-14l0 0 0 0c15,-28 20,-67 1,-119 0,0 79,-90 39,-165 0,0 -3,-25 1,-50 30,-66 65,-129 104,-191l-30 -81c-43,57 -82,115 -116,175l0 0c0,0 -44,6 -56,54 0,0 -22,-1 -27,12 0,0 -17,22 -1,49l20 17c0,0 -38,30 -35,93 -27,83 -46,169 -54,259 -11,2 -30,6 -37,18 0,0 -14,20 3,39l23 22c0,0 -8,33 7,46l0 0c1,50 4,101 11,154 83,433 314,632 618,712 264,44 511,-37 741,-239 -14,11 -29,21 -43,31l-209 -245c39,-34 76,-72 111,-115 47,-64 85,-133 113,-206l0 0 239 255c-32,56 -69,112 -113,169 154,-154 236,-330 274,-527 39,-207 41,-412 -44,-608 -175,-403 -618,-545 -929,-389 13,-5 25,-9 38,-13 7,2 16,4 27,6 105,18 73,94 73,94l0 0c-48,-5 -99,-4 -154,3 1,47 1,94 2,141 40,2 81,3 121,5 58,4 109,23 156,56 7,5 14,11 22,18 3,7 4,16 -3,25 -4,6 -24,29 -18,39 13,-10 29,-13 44,-7 23,10 33,39 22,65 -1,3 -3,6 -5,9l5 5c0,0 5,3 9,-3l27 -24c0,0 9,-10 21,-5l0 0c4,5 8,9 11,14 65,85 97,229 92,373 -1,20 -3,40 -7,62 -11,10 -23,8 -23,8 0,0 -6,-2 -30,-3 -14,-1 -16,8 -16,16 15,10 25,27 25,47 0,30 -23,55 -51,55 -2,0 -3,0 -5,0 0,15 26,22 26,22 16,7 21,20 24,29 -18,44 -39,85 -61,118 -58,88 -133,158 -223,211 -7,4 -17,8 -29,13 -28,2 -35,-44 -35,-44 -2,-10 -10,-11 -15,-11 0,2 0,3 0,5 0,28 -20,51 -45,51 -20,0 -36,-14 -42,-34 -8,3 -7,17 -7,17l1 35c-6,45 -120,26 -150,20 -66,-13 -127,-45 -185,-99 -18,-17 -38,-36 -21,-61l19 -23c7,-7 1,-13 -3,-17 -13,13 -31,18 -46,10 -20,-10 -27,-39 -14,-64 3,-6 7,-12 11,-16 -9,-6 -30,19 -30,19 -8,6 -16,6 -22,4 -4,-8 -9,-15 -12,-22 -26,-49 -41,-97 -45,-146 9,-3 21,-8 31,-17 0,0 14,-10 37,-25l0 0c-7,9 28,133 39,136 5,10 5,27 5,27 -1,7 2,14 5,17 13,-9 28,-12 41,-6 20,10 27,38 14,64 -2,4 -5,8 -7,12l1 2c9,16 18,10 18,10 6,-2 10,0 14,4 26,27 53,47 83,62 60,30 127,38 197,35 7,1 13,9 13,9 4,6 10,6 14,5 -1,-3 -1,-7 -1,-10 0,-28 20,-51 45,-51 20,0 36,14 42,35 1,0 1,0 2,0 10,1 18,-9 20,-16 2,-6 14,-14 14,-14 111,-60 194,-149 247,-267 6,-10 13,-11 13,-11 8,-6 10,-17 10,-20 -21,-7 -36,-28 -36,-52 0,-30 22,-55 50,-55 5,0 10,1 15,2l0 0c5,-5 8,-16 3,-22 -5,-6 -7,-16 -7,-16 16,-63 -16,-279 -63,-344 -7,-9 -10,-23 -9,-29 1,-5 -7,-15 -11,-20 -13,15 -33,21 -50,14 -23,-9 -33,-38 -22,-65 2,-5 5,-10 8,-14 -5,-6 -13,-6 -17,-5 -5,2 -15,-5 -15,-5 -69,-50 -164,-64 -278,-50 -52,11 -89,42 -118,84 18,9 30,29 37,49 20,53 40,105 61,157 14,32 41,44 68,62l0 0 0 0c13,12 22,35 27,51 7,25 11,52 10,78 -1,35 -11,71 -37,97l-1 1 -1 1c-31,16 -61,34 -88,56l-2 2 -3 0c-48,-2 -90,-19 -126,-51l-13 -11 0 0 -2 0 0 0c11,24 13,48 -4,72 -27,38 -56,75 -88,107 -28,24 -50,20 -67,-19 -12,-38 -22,-76 -24,-114 50,-32 117,-74 160,-94 3,3 5,7 8,10 8,10 16,20 23,31 5,5 11,4 17,1 40,-25 79,-50 119,-75 4,-3 4,-8 2,-14 -4,-9 -8,-18 -12,-27 7,-49 -9,-93 -49,-131 -20,-35 -43,-57 -68,-58 -39,-2 -67,14 -84,46 -8,21 -5,45 4,70 -1,11 -1,22 -2,32 -4,5 -8,9 -12,14 -9,13 7,32 18,39 3,8 7,15 11,22 -9,-13 -18,-25 -24,-31 0,0 -11,-9 -11,-23 0,0 -5,-5 -13,5l-122 112c0,0 -11,10 -15,2 0,0 -4,-6 6,-16l81 -136c0,0 -4,-53 29,-66l26 -10 -48 -122 -27 56c-9,-26 -32,-124 -59,-126l-67 0c-26,21 -28,50 -26,83zm333 118c26,-15 60,-10 78,8 19,20 31,47 31,77 0,61 -44,117 -108,111 -40,-6 -60,-37 -68,-72 1,2 2,5 3,7 19,62 89,79 136,31 19,-20 31,-47 31,-76 0,-28 -12,-54 -31,-73 -16,-16 -45,-22 -70,-13 28,9 47,20 57,34 -14,28 -13,55 -10,82 -24,13 -45,28 -59,47 -15,-3 -27,-11 -38,-22 88,23 127,-108 34,-131l7 -6 7 -6 1 0zm-18 18c28,0 51,27 51,61 0,13 -8,30 -17,40 -22,24 -53,28 -73,0 -8,-11 -12,-25 -12,-40 0,-34 23,-61 51,-61zm0 20c19,0 34,18 34,41 0,9 -5,20 -11,27 -15,16 -36,19 -49,0 -5,-7 -8,-16 -8,-27 0,-23 15,-41 34,-41zm0 -9c23,0 42,22 42,50 0,11 -6,24 -14,32 -18,20 -43,23 -60,0 -6,-9 -10,-20 -10,-32 0,-28 19,-50 42,-50zm81 8l13 10c15,55 -8,100 -58,125l-25 -6c14,-20 36,-34 58,-46l2 -1 0 -3c-3,-28 -3,-54 10,-80zm472 -322c20,8 29,34 19,57 -10,23 -34,35 -54,27 -20,-8 -29,-34 -19,-57 10,-23 34,-35 54,-27zm-6 15c13,5 18,22 12,37 -6,15 -22,23 -34,17 -13,-5 -18,-22 -12,-37 6,-15 22,-23 34,-17zm-56 151c13,-20 34,-30 52,-24 59,18 75,243 73,299 -13,66 -59,48 -103,31 -84,-32 -81,-40 -94,-128 -3,-24 -2,-45 4,-61 20,-41 42,-80 66,-117zm-117 62c0,0 -6,15 3,23 0,0 10,7 21,-2 0,0 25,-20 31,-45 0,0 3,-17 -6,-23 0,0 -10,-6 -17,3l-32 44zm-198 -185c-4,-33 11,-54 51,-62 62,-9 124,1 185,31 39,21 57,47 34,82 -26,29 -50,61 -78,88 -32,31 -59,45 -104,24 -46,-31 -78,-111 -88,-163zm246 458c4,-18 21,-14 33,-11 15,3 32,8 29,26 -2,16 -20,17 -35,13 -16,-3 -30,-7 -27,-28zm-122 323c0,0 -3,58 55,47 43,-17 82,-56 115,-94 35,-41 67,-83 90,-130 10,-32 3,-55 -25,-68 -33,-7 -67,-11 -101,-10 -40,-6 -63,13 -81,43 -28,24 -48,50 -49,84 -1,42 -2,85 -3,127zm-49 -131l0 0c10,-1 17,6 17,16l0 47c0,10 -8,18 -17,20l0 0c-10,1 -17,-6 -17,-16l0 -47c0,-10 8,-18 17,-20zm-295 75c-20,27 -20,54 5,79 64,48 139,77 220,76 30,-6 47,-28 41,-76 -4,-43 -11,-83 -23,-122 -7,-16 -17,-28 -33,-35 -15,-5 -29,-10 -44,-15 -20,-5 -38,-2 -55,9 -37,28 -83,54 -110,84zm86 -139l0 0c8,6 8,16 2,23l-32 33c-7,7 -18,8 -26,2l0 0c-8,-6 -8,-16 -2,-23l32 -33c7,-7 18,-8 26,-2zm850 84c0,0 -36,-96 38,-136 61,-33 225,-82 280,-99 -12,163 -49,311 -122,456l-196 -221zm321 -302l-335 117 0 0c22,-128 18,-258 -12,-375l0 0 284 -119c35,78 57,162 63,249 1,44 1,87 0,128zm-373 200l-1 3c-5,9 -15,12 -23,8 -8,-4 -10,-15 -5,-24 5,-9 15,-12 23,-8 7,4 10,13 7,21zm-125 744c0,0 27,-48 -10,-95 -31,-41 -121,-147 -147,-178 -35,27 -71,50 -108,69l-66 217c0,0 -26,94 45,111 89,-21 184,-62 285,-124zm-78 -826c16,0 28,14 28,31 0,17 -13,31 -28,31 -16,0 -28,-14 -28,-31 0,-17 13,-31 28,-31zm-756 241c18,9 24,35 13,57 -11,23 -35,34 -53,26 -18,-9 -24,-35 -13,-57 11,-23 35,-34 53,-26zm-8 17c11,5 14,20 7,33 -6,13 -20,20 -31,15 -11,-5 -14,-20 -7,-33 6,-13 20,-20 31,-15zm401 124c22,0 41,21 41,46 0,25 -18,46 -41,46 -22,0 -41,-21 -41,-46 0,-25 18,-46 41,-46zm0 18c14,0 25,13 25,28 0,16 -11,28 -25,28 -14,0 -25,-13 -25,-28 0,-16 11,-28 25,-28zm363 -417c24,0 44,21 44,48 0,26 -20,48 -44,48 -24,0 -44,-21 -44,-48 0,-26 20,-48 44,-48zm-952 179c7,1 12,8 11,16 -1,8 -8,13 -15,12 -7,-1 -12,-8 -11,-16 1,-8 8,-13 15,-12zm547 397c8,4 10,15 5,24 -5,9 -15,12 -23,8 -8,-4 -10,-15 -5,-24 5,-9 15,-12 23,-8zm-410 -129c7,1 12,9 11,18 -1,9 -8,15 -15,14 -7,-1 -12,-9 -11,-18 1,-9 8,-15 15,-14zm43 71c7,1 12,9 11,18 -1,9 -8,15 -15,14 -7,-1 -12,-9 -11,-18 1,-9 8,-15 15,-14zm80 0c7,1 12,9 11,18 -1,9 -8,15 -15,14 -7,-1 -12,-9 -11,-18 1,-9 8,-15 15,-14zm44 97c8,1 13,10 12,20 -1,10 -9,17 -17,15 -8,-1 -13,-10 -12,-20 1,-10 9,-17 17,-15zm85 -24c8,1 13,10 12,20 -1,10 -9,17 -17,15 -8,-1 -13,-10 -12,-20 1,-10 9,-17 17,-15zm71 35c8,1 13,10 12,20 -1,10 -9,17 -17,15 -8,-1 -13,-10 -12,-20 1,-10 9,-17 17,-15zm-395 -207c7,1 12,9 11,18 -1,9 -8,15 -15,14 -7,-1 -12,-9 -11,-18 1,-9 8,-15 15,-14zm45 -33c-8,-5 -8,-17 -2,-28 7,-11 18,-16 26,-11 8,5 8,17 2,28 -7,11 -18,16 -26,11zm-41 -78c7,1 12,9 11,18 -1,9 -8,15 -15,14 -7,-1 -12,-9 -11,-18 1,-9 8,-15 15,-14zm-63 -45c7,1 12,9 11,18 -1,9 -8,15 -15,14 -7,-1 -12,-9 -11,-18 1,-9 8,-15 15,-14zm465 711c2,0 119,-21 136,-106l46 -183c-92,27 -189,31 -284,7l-29 90c0,0 -20,71 31,110l101 82 0 0zm375 -1898c65,5 127,19 187,41 11,11 24,29 33,38 12,13 -8,68 -8,68l-37 128 0 0c-63,-63 -141,-109 -237,-132l2 -52c7,-45 37,-74 59,-91zm363 134c79,57 148,130 201,213l-3 -1c0,57 -47,78 -47,78l-202 71 0 0c-18,-49 -40,-94 -68,-136l41 -186c13,-42 62,-40 78,-39zm-446 91c7,3 9,13 5,23 -4,10 -13,16 -20,13 -7,-3 -9,-13 -5,-23 4,-10 13,-16 20,-13zm88 -15c7,3 9,13 5,23 -4,10 -13,16 -20,13 -7,-3 -9,-13 -5,-23 4,-10 13,-16 20,-13zm311 390c8,4 10,15 5,24 -5,9 -15,12 -23,8 -8,-4 -10,-15 -5,-24 5,-9 15,-12 23,-8zm-260 -329c7,3 9,13 5,23 -4,10 -13,16 -20,13 -7,-3 -9,-13 -5,-23 4,-10 13,-16 20,-13zm192 257c8,4 10,15 5,24 -5,9 -15,12 -23,8 -8,-4 -10,-15 -5,-24 5,-9 15,-12 23,-8zm-15 -90c8,4 10,15 5,24 -5,9 -15,12 -23,8 -8,-4 -10,-15 -5,-24 5,-9 15,-12 23,-8zm-80 -40c6,4 6,15 0,24 -6,9 -16,13 -22,9 -6,-4 -6,-15 0,-24 6,-9 16,-13 22,-9zm-70 -36c7,5 8,17 1,28 -7,11 -18,16 -26,11 -7,-5 -8,-17 -1,-28 7,-11 18,-16 26,-11zm64 -77c7,3 9,13 5,23 -4,10 -13,16 -20,13 -7,-3 -9,-13 -5,-23 4,-10 13,-16 20,-13zm-14 969c8,4 10,15 5,24 -5,9 -15,12 -23,8 -8,-4 -10,-15 -5,-24 5,-9 15,-12 23,-8zm-372 236c-9,0 -16,-10 -16,-23 0,-13 7,-23 16,-23 9,0 16,10 16,23 0,13 -7,23 -16,23zm26 63c8,4 10,15 5,24 -5,9 -15,12 -23,8 -8,-4 -10,-15 -5,-24 5,-9 15,-12 23,-8zm72 -68c8,4 10,15 5,24 -5,9 -15,12 -23,8 -8,-4 -10,-15 -5,-24 5,-9 15,-12 23,-8zm83 -18c8,4 10,15 5,24 -5,9 -15,12 -23,8 -8,-4 -10,-15 -5,-24 5,-9 15,-12 23,-8zm52 -96c8,4 10,15 5,24 -5,9 -15,12 -23,8 -8,-4 -10,-15 -5,-24 5,-9 15,-12 23,-8zm105 -8c8,4 10,15 5,24 -5,9 -15,12 -23,8 -8,-4 -10,-15 -5,-24 5,-9 15,-12 23,-8zm105 -177c8,4 10,15 5,24 -5,9 -15,12 -23,8 -8,-4 -10,-15 -5,-24 5,-9 15,-12 23,-8zm1 -110c8,4 10,15 5,24 -5,9 -15,12 -23,8 -8,-4 -10,-15 -5,-24 5,-9 15,-12 23,-8zm15 -78c-2,9 -13,14 -26,11 -12,-3 -21,-12 -19,-20 2,-9 13,-14 26,-11 12,3 21,12 19,20zm58 -101c8,4 10,15 5,24 -5,9 -15,12 -23,8 -8,-4 -10,-15 -5,-24 5,-9 15,-12 23,-8zm33 -96c8,4 10,15 5,24 -5,9 -15,12 -23,8 -8,-4 -10,-15 -5,-24 5,-9 15,-12 23,-8zm-50 -89c8,4 10,15 5,24 -5,9 -15,12 -23,8 -8,-4 -10,-15 -5,-24 5,-9 15,-12 23,-8zm-1409 864c12,25 -1,103 43,87 -33,1 -9,-76 -43,-87zm1561 356c59,4 161,102 204,13 -48,56 -134,-59 -204,-13zm-217 344c-3,7 73,7 86,5 204,-9 319,-101 473,-228 3,-3 5,-6 8,-9 -4,0 -8,1 -12,1 -152,118 -268,214 -465,224 -11,1 -91,-1 -90,7zm-1262 -543c16,31 0,128 54,108 -41,2 -12,-94 -54,-108zm118 160c19,29 13,128 65,102 -40,6 -22,-93 -65,-102zm153 152c24,25 36,123 83,88 -38,14 -39,-87 -83,-88zm173 89c29,31 44,150 101,107 -47,17 -47,-106 -101,-107zm201 63c41,29 72,146 144,100 -61,20 -72,-103 -144,-100zm187 -5c43,30 75,153 150,105 -63,20 -75,-107 -150,-105zm279 -33c55,20 127,142 193,68 -62,41 -113,-93 -193,-68zm184 -106c76,20 206,154 263,70 -63,47 -172,-100 -263,-70zm309 -2193c9,-37 95,-99 32,-129 38,32 -59,83 -32,129zm-352 -157c-5,-26 32,-92 -18,-92 34,10 -13,71 18,92zm178 63c1,-27 52,-82 4,-94 31,17 -29,66 -4,94zm289 2222c-5,1 -17,11 12,2 0,0 80,-25 103,-35 229,-97 211,-237 341,-404 4,-5 0,-9 -7,-2 -87,96 -99,172 -155,241 -47,59 -104,109 -190,152 -35,15 -71,31 -106,46zm348 -501c0,0 -4,15 9,3 105,-94 156,-104 187,-193 40,-115 16,-255 60,-355 2,-4 0,-10 -4,-5 -67,144 -23,338 -129,438 -41,37 -82,74 -123,112zm141 -606c0,0 -5,14 0,16 0,0 2,3 7,-9 26,-48 89,-56 91,-172 4,-133 -69,-245 -68,-346 0,0 -1,-23 -4,-6 0,0 -1,91 24,154 0,0 39,112 33,150 2,50 -8,92 -29,127 -18,29 -37,58 -55,87zm-90 -556c0,0 3,15 12,-5 0,0 15,-32 19,-49 20,-75 -23,-158 -72,-213 -42,-48 -79,-93 -118,-143 26,64 86,117 129,175 99,138 17,176 30,235zm-428 1421c67,-9 215,68 234,-30 -36,67 -170,-31 -234,30zm128 -233c56,-19 187,34 194,-65 -24,70 -146,-4 -194,65zm119 -260c63,-29 225,15 219,-102 -18,86 -172,15 -219,102zm71 -283c37,-22 172,-13 128,-78 15,50 -123,25 -128,78zm-7 -262c50,-49 217,-60 173,-169 11,87 -158,71 -173,169zm-33 -272c25,-29 129,-46 86,-101 19,46 -90,48 -86,101zm-208 -424c11,-29 86,-70 39,-100 27,30 -56,61 -39,100z" style="fill: #111111;"></path></g></g><g id="SvgjsG1659" featureKey="RGwKHf-0" transform="matrix(2.3200226564712545,0,0,2.3200226564712545,-2.9696272744973093,140.94066283453697)" fill="#111111"><path d="M1.28 19.96 l1.06 -13.6 q0.82 -0.14 1.77 -0.14 t1.73 0.14 l1.54 5.54 q0.62 2.48 0.76 3.42 l0.14 0 q0.14 -0.94 0.76 -3.42 l1.52 -5.54 q0.84 -0.14 1.76 -0.14 t1.76 0.14 l1.06 13.6 q-0.54 0.14 -1.29 0.14 t-1.25 -0.08 l-0.38 -6.42 q-0.16 -2.48 -0.16 -4.34 l-0.14 0 l-2.34 8.7 q-0.66 0.1 -1.37 0.1 t-1.37 -0.1 l-2.34 -8.7 l-0.14 0 q-0.04 2.46 -0.16 4.34 l-0.38 6.42 q-0.5 0.08 -1.25 0.08 t-1.29 -0.14 z M17.700000000000003 19.96 l1.06 -13.6 q0.82 -0.14 1.77 -0.14 t1.73 0.14 l1.54 5.54 q0.62 2.48 0.76 3.42 l0.14 0 q0.14 -0.94 0.76 -3.42 l1.52 -5.54 q0.84 -0.14 1.76 -0.14 t1.76 0.14 l1.06 13.6 q-0.54 0.14 -1.29 0.14 t-1.25 -0.08 l-0.38 -6.42 q-0.16 -2.48 -0.16 -4.34 l-0.14 0 l-2.34 8.7 q-0.66 0.1 -1.37 0.1 t-1.37 -0.1 l-2.34 -8.7 l-0.14 0 q-0.04 2.46 -0.16 4.34 l-0.38 6.42 q-0.5 0.08 -1.25 0.08 t-1.29 -0.14 z M43.6 8.56 l0.02 1.48 l0 9.96 q-0.58 0.1 -1.35 0.1 t-1.35 -0.1 l0 -9.96 l0.02 -1.48 l-1.22 0.02 l-2.22 0 q-0.1 -0.5 -0.1 -1.12 t0.1 -1.12 l9.56 0 q0.14 0.5 0.14 1.09 t-0.34 0.87 t-1.1 0.28 l-0.94 0 l-1.22 -0.02 l0 0 z M58.32000000000001 10.46 q0 0.66 -0.19 1.25 t-0.53 1.06 t-0.79 0.82 t-0.99 0.53 q0.52 0.18 0.87 0.62 t0.61 1.14 l0.74 2.02 q0.18 0.5 0.4 0.86 t0.54 0.6 q-0.26 0.36 -0.75 0.58 t-1.11 0.22 q-0.6 0 -0.96 -0.36 t-0.66 -1.22 l-0.84 -2.38 q-0.26 -0.7 -0.66 -1.07 t-1.2 -0.37 l-1.22 0 l0 5.24 q-0.28 0.04 -0.62 0.07 t-0.74 0.03 q-0.74 0 -1.3 -0.1 l0 -13.56 l0.14 -0.12 q1.62 -0.04 2.75 -0.06 t1.81 -0.02 q2.16 0 3.43 1.08 t1.27 3.14 z M51.580000000000005 8.28 l0 4.4 q1.04 -0.06 1.84 -0.06 q2.14 0 2.14 -2.16 t-2.14 -2.16 l-1.07 0 t-0.77 -0.02 z M67.94 16.9 l-0.98 0.02 l-2.8 0 l-0.98 -0.02 l-0.94 3.12 q-0.42 0.1 -1.19 0.1 t-1.25 -0.18 l-0.1 -0.14 l4.46 -13.46 q0.74 -0.1 1.6 -0.1 t1.5 0.12 l4.38 13.46 q-0.58 0.34 -1.39 0.34 t-1.16 -0.3 t-0.59 -1.14 z M63.84 14.780000000000001 l0.9 -0.02 l1.72 0 l0.84 0.02 l-0.6 -2.04 q-0.68 -2.28 -1.08 -3.88 l-0.12 0 q-0.18 0.86 -0.88 3.38 z M83.88 6.220000000000001 l0.14 0.14 l0 13.6 q-0.62 0.14 -1.56 0.14 t-1.64 -0.1 l-3.68 -7.74 q-0.8 -1.76 -1.2 -2.8 l-0.08 0.02 q0.22 2.82 0.22 5.44 l0 5.08 q-0.56 0.1 -1.27 0.1 t-1.23 -0.1 l0 -13.62 q0.58 -0.14 1.52 -0.14 t1.64 0.1 l3.64 7.74 l1.3 2.96 l0.06 -0.02 q-0.2 -2.9 -0.2 -5.48 l0 -3.66 q0 -0.9 0.34 -1.28 t1.14 -0.38 l0.86 0 z M86.12 18.8 q0.06 -0.56 0.37 -1.13 t0.71 -0.91 q2.06 1.32 4.04 1.32 q0.96 0 1.52 -0.45 t0.56 -1.13 q-0.04 -1.16 -1.54 -1.82 l-2.36 -1 q-1.4 -0.58 -2.1 -1.49 t-0.7 -2.09 q0 -0.9 0.35 -1.64 t1 -1.27 t1.54 -0.83 t1.97 -0.3 q2.2 0 4.32 1.1 q-0.06 1.22 -0.94 2.04 q-2.02 -0.96 -3.52 -0.96 q-0.96 0 -1.47 0.44 t-0.51 1.08 q0 0.92 1.42 1.52 l2.36 1 q1.44 0.6 2.22 1.58 t0.78 2.26 q0 0.9 -0.32 1.67 t-0.97 1.32 t-1.62 0.86 t-2.29 0.31 q-2.56 0 -4.82 -1.48 z M102.98000000000002 15.46 l-1.84 0 l0 4.54 q-0.56 0.1 -1.34 0.1 t-1.34 -0.1 l0 -13.56 l0.14 -0.12 q1.62 -0.04 2.71 -0.06 t1.67 -0.02 q2.16 0 3.45 1.18 t1.29 3.42 q0 1.12 -0.34 1.98 t-0.96 1.44 t-1.49 0.89 t-1.95 0.31 z M101.14000000000001 8.32 l0 5.1 q0.78 -0.02 1.33 -0.02 t0.94 -0.07 t0.66 -0.26 t0.49 -0.57 q0.2 -0.34 0.3 -0.77 t0.1 -0.87 q0 -0.46 -0.1 -0.91 t-0.34 -0.81 t-0.64 -0.58 t-1 -0.22 l-1.01 0 t-0.73 -0.02 z M117.96000000000001 13.18 q0 -5.02 -2.96 -5.02 t-2.96 5.02 q0 5 2.96 5 t2.96 -5 z M111.36000000000001 19.06 q-2.14 -1.84 -2.14 -5.88 q0 -1.7 0.39 -3.02 t1.14 -2.23 t1.82 -1.39 t2.45 -0.48 q1.36 0 2.43 0.48 t1.81 1.39 t1.13 2.24 t0.39 3.01 t-0.39 3 t-1.13 2.23 t-1.81 1.39 t-2.43 0.48 q-2.18 0 -3.66 -1.22 z M132.68 10.46 q0 0.66 -0.19 1.25 t-0.53 1.06 t-0.79 0.82 t-0.99 0.53 q0.52 0.18 0.87 0.62 t0.61 1.14 l0.74 2.02 q0.18 0.5 0.4 0.86 t0.54 0.6 q-0.26 0.36 -0.75 0.58 t-1.11 0.22 q-0.6 0 -0.96 -0.36 t-0.66 -1.22 l-0.84 -2.38 q-0.26 -0.7 -0.66 -1.07 t-1.2 -0.37 l-1.22 0 l0 5.24 q-0.28 0.04 -0.62 0.07 t-0.74 0.03 q-0.74 0 -1.3 -0.1 l0 -13.56 l0.14 -0.12 q1.62 -0.04 2.75 -0.06 t1.81 -0.02 q2.16 0 3.43 1.08 t1.27 3.14 z M125.94 8.28 l0 4.4 q1.04 -0.06 1.84 -0.06 q2.14 0 2.14 -2.16 t-2.14 -2.16 l-1.07 0 t-0.77 -0.02 z M139.92000000000002 8.56 l0.02 1.48 l0 9.96 q-0.58 0.1 -1.35 0.1 t-1.35 -0.1 l0 -9.96 l0.02 -1.48 l-1.22 0.02 l-2.22 0 q-0.1 -0.5 -0.1 -1.12 t0.1 -1.12 l9.56 0 q0.14 0.5 0.14 1.09 t-0.34 0.87 t-1.1 0.28 l-0.94 0 l-1.22 -0.02 l0 0 z"></path></g><g id="SvgjsG1660" featureKey="UxezYZ-0" transform="matrix(0.47178465802403224,0,0,0.47178465802403224,56.433858612839174,195.28252026179865)" fill="#111111"><path d="M15.78 6 l0 14 l-1.7 0 l0 -10.28 l-4.92 10.28 l-1.36 0 l-4.9 -10.26 l0 10.26 l-1.7 0 l0 -14 l1.64 0 l5.66 11.72 l5.64 -11.72 l1.64 0 z M36.044000000000004 5.800000000000001 c3.64 0 7.16 2.96 7.16 7.2 s-3.52 7.2 -7.16 7.2 c-3.66 0 -7.16 -2.96 -7.16 -7.2 s3.5 -7.2 7.16 -7.2 z M36.044000000000004 18.62 c2.74 0 5.44 -2.32 5.44 -5.62 s-2.7 -5.62 -5.44 -5.62 c-2.76 0 -5.44 2.32 -5.44 5.62 s2.68 5.62 5.44 5.62 z M65.348 6 l0 1.56 l-3.88 0 l0 12.44 l-1.66 0 l0 -12.44 l-3.9 0 l0 -1.56 l9.44 0 z M85.212 5.800000000000001 c3.64 0 7.16 2.96 7.16 7.2 s-3.52 7.2 -7.16 7.2 c-3.66 0 -7.16 -2.96 -7.16 -7.2 s3.5 -7.2 7.16 -7.2 z M85.212 18.62 c2.74 0 5.44 -2.32 5.44 -5.62 s-2.7 -5.62 -5.44 -5.62 c-2.76 0 -5.44 2.32 -5.44 5.62 s2.68 5.62 5.44 5.62 z M115.75600000000001 20 l-1.8 0 l-3.54 -5.04 l-0.38 0 l-2.9 0 l0 5.04 l-1.66 0 l0 -14 l4.56 0 c3.14 0 4.96 1.92 4.96 4.52 c0 2 -1.08 3.56 -3 4.16 z M107.13600000000001 7.5600000000000005 l0 5.92 l2.86 0 c2.02 0 3.34 -1.04 3.34 -2.96 c0 -1.94 -1.32 -2.96 -3.34 -2.96 l-2.86 0 z M140.12 18.5 c-1.28 1.1 -2.9 1.7 -4.7 1.7 c-3.64 0 -7.16 -2.96 -7.16 -7.2 s3.52 -7.2 7.16 -7.2 c1.78 0 3.38 0.6 4.64 1.66 l-1.02 1.16 c-0.98 -0.78 -2.24 -1.24 -3.5 -1.24 c-2.86 0 -5.56 2.32 -5.56 5.62 s2.7 5.62 5.56 5.62 c1.28 0 2.56 -0.48 3.54 -1.28 z M164.004 6 l-5.22 7.54 l0 6.46 l-1.66 0 l0 -6.46 l-5.22 -7.54 l1.9 0 l4.14 6.02 l4.16 -6.02 l1.9 0 z M187.488 18.5 c-1.28 1.1 -2.9 1.7 -4.7 1.7 c-3.64 0 -7.16 -2.96 -7.16 -7.2 s3.52 -7.2 7.16 -7.2 c1.78 0 3.38 0.6 4.64 1.66 l-1.02 1.16 c-0.98 -0.78 -2.24 -1.24 -3.5 -1.24 c-2.86 0 -5.56 2.32 -5.56 5.62 s2.7 5.62 5.56 5.62 c1.28 0 2.56 -0.48 3.54 -1.28 z M202.05200000000002 18.44 l6.28 0 l0 1.56 l-7.94 0 l0 -14 l1.66 0 l0 12.44 z M222.996 18.44 l6.66 0 l0 1.56 l-7.06 0 l-1.26 0 l0 -14 l1.66 0 l6.48 0 l0 1.56 l-6.48 0 l0 4.64 l5.04 0 l0 1.52 l-5.04 0 l0 4.72 z M268.80400000000003 6 l0 1.56 l-3.88 0 l0 12.44 l-1.66 0 l0 -12.44 l-3.9 0 l0 -1.56 l9.44 0 z M292.088 20 l-1.8 0 l-3.54 -5.04 l-0.38 0 l-2.9 0 l0 5.04 l-1.66 0 l0 -14 l4.56 0 c3.14 0 4.96 1.92 4.96 4.52 c0 2 -1.08 3.56 -3 4.16 z M283.468 7.5600000000000005 l0 5.92 l2.86 0 c2.02 0 3.34 -1.04 3.34 -2.96 c0 -1.94 -1.32 -2.96 -3.34 -2.96 l-2.86 0 z M316.212 20 l-1.44 -3.3 l-7.48 0 l-1.44 3.3 l-1.76 0 l6.24 -14 l1.38 0 l6.26 14 l-1.76 0 z M307.91200000000003 15.3 l6.24 0 l-3.12 -7.12 z M340.33599999999996 6 l1.66 0 l0 14 l-1.28 0 l-8.48 -10.96 l0 10.96 l-1.66 0 l0 -14 l1.28 0 l8.48 10.98 l0 -10.98 z M359.7 5.76 c2.18 0 3.78 1.44 4.38 2.94 l-1.26 0.68 c-0.64 -1.28 -1.66 -2.12 -3.12 -2.12 c-1.54 0 -2.6 0.88 -2.6 2.1 c0 1.14 0.72 1.86 2.24 2.44 l1.02 0.38 c2.52 0.94 4.1 2.02 4.1 4.24 c0 2.4 -2.3 3.88 -4.68 3.88 s-4.34 -1.44 -4.88 -3.44 l1.34 -0.64 c0.48 1.48 1.74 2.56 3.54 2.56 c1.6 0 2.96 -0.92 2.96 -2.34 c0 -1.6 -1.12 -2.2 -2.78 -2.84 l-1.04 -0.4 c-2.12 -0.8 -3.48 -1.9 -3.48 -3.88 c0 -2.04 1.8 -3.56 4.26 -3.56 z M381.924 6 c3.14 0 4.96 1.92 4.96 4.52 s-1.82 4.44 -4.96 4.44 l-2.9 0 l0 5.04 l-1.66 0 l0 -14 l4.56 0 z M381.884 13.48 c2.02 0 3.34 -1.04 3.34 -2.96 c0 -1.94 -1.32 -2.96 -3.34 -2.96 l-2.86 0 l0 5.92 l2.86 0 z M406.64799999999997 5.800000000000001 c3.64 0 7.16 2.96 7.16 7.2 s-3.52 7.2 -7.16 7.2 c-3.66 0 -7.16 -2.96 -7.16 -7.2 s3.5 -7.2 7.16 -7.2 z M406.64799999999997 18.62 c2.74 0 5.44 -2.32 5.44 -5.62 s-2.7 -5.62 -5.44 -5.62 c-2.76 0 -5.44 2.32 -5.44 5.62 s2.68 5.62 5.44 5.62 z M437.192 20 l-1.8 0 l-3.54 -5.04 l-0.38 0 l-2.9 0 l0 5.04 l-1.66 0 l0 -14 l4.56 0 c3.14 0 4.96 1.92 4.96 4.52 c0 2 -1.08 3.56 -3 4.16 z M428.572 7.5600000000000005 l0 5.92 l2.86 0 c2.02 0 3.34 -1.04 3.34 -2.96 c0 -1.94 -1.32 -2.96 -3.34 -2.96 l-2.86 0 z M459.036 6 l0 1.56 l-3.88 0 l0 12.44 l-1.66 0 l0 -12.44 l-3.9 0 l0 -1.56 l9.44 0 z"></path></g>
			</g>
		</svg>
	